<svg xmlns="http://www.w3.org/2000/svg" version="1.1" xmlns:xlink="http://www.w3.org/1999/xlink" xmlns:svgjs="http://svgjs.dev/svgjs" width="1000" height="1000" viewBox="0 0 1000 1000"><rect width="1000" height="1000" fill="#ffffff"></rect><g transform="matrix(0.7,0,0,0.7,149.57575757575756,335.85320053962823)"><svg viewBox="0 0 396 186" data-background-color="#ffbe79" preserveAspectRatio="xMidYMid meet" height="469" width="1000" xmlns="http://www.w3.org/2000/svg" xmlns:xlink="http://www.w3.org/1999/xlink"><g id="tight-bounds" transform="matrix(1,0,0,1,0.2400000000000091,-0.0018132816656617479)"><svg viewBox="0 0 395.52 186.00362523740264" height="186.00362523740264" width="395.52"><g><svg viewBox="0 0 397.4975999999999 186.93364336358962" height="186.00362523740264" width="395.52"><g><rect width="397.4975999999999" height="5.725530600931173" x="0" y="102.73051269398103" fill="#000000" opacity="1" stroke-width="0" stroke="transparent" fill-opacity="1" class="rect-o-0" data-fill-palette-color="secondary" rx="1%" id="o-0" data-palette-color="#374151"></rect></g><g transform="matrix(1,0,0,1,0.9887999999999693,123.44434329734983)"><svg viewBox="0 0 395.52 63.48930006623979" height="63.48930006623979" width="395.52"><g id="textblocktransform"><svg viewBox="0 0 395.52 63.48930006623979" height="63.48930006623979" width="395.52" id="textblock"><g><svg viewBox="0 0 395.52 63.48930006623979" height="63.48930006623979" width="395.52"><g transform="matrix(1,0,0,1,0,0)"><svg width="395.52" viewBox="1.850000023841858 -35.79999923706055 226.42999267578125 36.349998474121094" height="63.48930006623979" data-palette-color="#374151"><path d="M5.6-9.15Q5.75-7.55 6.78-6.13 7.8-4.7 9.55-3.83 11.3-2.95 13.6-2.95L13.6-2.95Q17.15-2.95 19.43-4.58 21.7-6.2 21.7-9.3L21.7-9.3Q21.7-11.5 20.5-12.98 19.3-14.45 17.55-15.33 15.8-16.2 12.75-17.35L12.75-17.35Q9.5-18.55 7.5-19.58 5.5-20.6 4.13-22.38 2.75-24.15 2.75-26.9L2.75-26.9Q2.75-29.1 4-31.08 5.25-33.05 7.78-34.27 10.3-35.5 14-35.5L14-35.5Q16.45-35.5 18.05-35.15 19.65-34.8 21.3-34L21.3-34 20.2-30.6Q17.1-31.95 14.1-31.95L14.1-31.95Q10.55-31.95 8.53-30.53 6.5-29.1 6.55-26.65L6.55-26.65Q6.55-25.15 7.6-24.08 8.65-23 10.2-22.25 11.75-21.5 14.4-20.55L14.4-20.55Q17.95-19.25 20.2-18.07 22.45-16.9 24.03-14.83 25.6-12.75 25.6-9.65L25.6-9.65Q25.6-5.05 22.68-2.25 19.75 0.55 13.65 0.55L13.65 0.55Q9.95 0.55 7.33-0.83 4.7-2.2 3.33-4.38 1.95-6.55 1.85-8.9L1.85-8.9 5.6-9.15ZM49.85 0L49.85-17.15 35.55-17.15 35.55 0 31.95 0 31.95-35 35.55-35 35.55-20.65 49.85-20.65 49.85-35 53.45-35 53.45 0 49.85 0ZM79.25 0L75.8-11.3 65.4-11.3 62.1 0 58.2 0 68.5-35 72.65-35 83.3 0 79.25 0ZM70.55-29.2L66.35-15 74.9-15 70.55-29.2ZM110.89 0L110.89-24.25 102.74 0 99.34 0 91.29-24.25 91.29 0 87.69 0 87.69-35 91.29-35 101.04-6.55 110.89-35 114.49-35 114.49 0 110.89 0ZM140.29 0L136.84-11.3 126.44-11.3 123.14 0 119.24 0 129.54-35 133.69-35 144.34 0 140.29 0ZM131.59-29.2L127.39-15 135.94-15 131.59-29.2ZM146.39 0L146.39-3.25 165.89-31.55 147.04-31.55 147.04-35 170.44-35 170.44-31.6 150.94-3.35 170.74-3.35 170.74 0 146.39 0ZM196.49-9.25Q196.49-4.2 193.41-1.83 190.34 0.55 186.04 0.55L186.04 0.55Q183.34 0.55 180.94-0.43 178.54-1.4 177.01-3.6 175.49-5.8 175.49-9.25L175.49-9.25 175.49-25.35Q175.49-30.5 178.31-33.15 181.14-35.8 186.09-35.8L186.09-35.8Q191.04-35.8 193.76-33 196.49-30.2 196.49-25.3L196.49-25.3 196.49-9.25ZM192.89-25.1Q192.89-28.55 191.11-30.35 189.34-32.15 185.99-32.15L185.99-32.15Q182.64-32.15 180.86-30.38 179.09-28.6 179.09-25.1L179.09-25.1 179.09-9.55Q179.09-6.35 180.99-4.67 182.89-3 185.99-3L185.99-3Q189.09-3 190.99-4.67 192.89-6.35 192.89-9.65L192.89-9.65 192.89-25.1ZM224.63 0L207.28-28 207.28 0 203.68 0 203.68-35 207.28-35 224.63-7.05 224.63-35 228.28-35 228.28 0 224.63 0Z" opacity="1" transform="matrix(1,0,0,1,0,0)" fill="#000000" class="undefined-text-0" data-fill-palette-color="primary" id="text-0"></path></svg></g></svg></g></svg></g></svg></g><g transform="matrix(1,0,0,1,147.64400406082248,0)"><svg viewBox="0 0 102.20959187835497 87.7422126915434" height="87.7422126915434" width="102.20959187835497"><g><svg xmlns="http://www.w3.org/2000/svg" xmlns:xlink="http://www.w3.org/1999/xlink" version="1.1" x="8" y="0" viewBox="5 4.199999809265137 90 91.60000610351562" style="enable-background:new 0 0 100 100;" xml:space="preserve" height="87.7422126915434" width="86.20959187835497" class="icon-icon-0" data-fill-palette-color="accent" id="icon-0"><g fill="#374151" data-fill-palette-color="accent"><polygon class="" points="46.2,95.8 5,81 5,20.5 46.2,34.6  " fill-rule="evenodd" clip-rule="evenodd" fill="#000000" data-fill-palette-color="accent"></polygon><polygon class="" points="53.8,95.8 95,81 95,20.5 53.8,34.6  " fill-rule="evenodd" clip-rule="evenodd" fill="#000000" data-fill-palette-color="accent"></polygon><polygon class="" points="9.2,16 51,4.2 89.7,16.7 51,29.9  " fill-rule="evenodd" clip-rule="evenodd" fill="#000000" data-fill-palette-color="accent"></polygon></g></svg></g></svg></g><g><rect width="71.11088406082251" height="5.725530600931173" y="81.01668209061222" x="249.85359593917747" fill="#000000" data-fill-palette-color="secondary"></rect><rect width="71.11088406082251" height="5.725530600931173" y="81.01668209061222" x="76.53311999999997" fill="#000000" data-fill-palette-color="secondary"></rect></g></svg></g><defs></defs></svg><rect width="395.52" height="186.00362523740264" fill="none" stroke="none" visibility="hidden"></rect></g></svg></g></svg>